<svg width="36" height="36" viewBox="0 0 36 36" fill="none" xmlns="http://www.w3.org/2000/svg">
<g clip-path="url(#clip0_71_174)">
<path fill-rule="evenodd" clip-rule="evenodd" d="M1.02922 33.5564C0.638697 33.9469 0.638697 34.5801 1.02922 34.9706C1.41974 35.3611 2.05291 35.3611 2.44343 34.9706L17.9998 19.4143L33.5561 34.9706C33.9467 35.3611 34.5798 35.3611 34.9704 34.9706C35.3609 34.5801 35.3609 33.9469 34.9704 33.5564L19.414 18.0001L34.9704 2.44368C35.3609 2.05316 35.3609 1.41999 34.9704 1.02947C34.5798 0.638944 33.9467 0.638943 33.5562 1.02947L17.9998 16.5859L2.44343 1.02947C2.05291 0.638941 1.41974 0.638942 1.02922 1.02947C0.638697 1.41999 0.638696 2.05316 1.02922 2.44368L16.5856 18.0001L1.02922 33.5564Z" fill="black"/>
</g>
<defs>
<clipPath id="clip0_71_174">
<rect width="36" height="36" fill="white"/>
</clipPath>
</defs>
</svg>
